<mxfile host="app.diagrams.net" modified="2023-04-19T13:55:53.578Z" agent="Mozilla/5.0 (Windows NT 10.0; Win64; x64) AppleWebKit/537.36 (KHTML, like Gecko) Chrome/112.0.0.0 Safari/537.36 Edg/112.0.1722.48" version="21.1.9" etag="T5xJ1VhW7GsMYS1MLZft" type="github">
  <diagram name="第 1 页" id="PWJal2YSjXAzQDy9TD__">
    <mxGraphModel>
      <root>
        <mxCell id="0" />
        <mxCell id="1" parent="0" />
      </root>
    </mxGraphModel>
  </diagram>
</mxfile>
